<mxfile host="app.diagrams.net" modified="2023-11-07T13:52:46.629Z" agent="Mozilla/5.0 (Windows NT 10.0; Win64; x64) AppleWebKit/537.36 (KHTML, like Gecko) Chrome/119.0.0.0 Safari/537.36" etag="KXz1jLkMPE1YyyU0E1iD" version="22.0.8" type="github">
  <diagram name="Page-1" id="QO8v-GnxZSHu0Qnocdcj">
    <mxGraphModel dx="963" dy="753" grid="1" gridSize="10" guides="1" tooltips="1" connect="1" arrows="1" fold="1" page="1" pageScale="1" pageWidth="850" pageHeight="1100" math="0" shadow="0">
      <root>
        <mxCell id="0" />
        <mxCell id="1" parent="0" />
        <mxCell id="3xFPrsHCBQQurFq4HEx6-26" style="edgeStyle=orthogonalEdgeStyle;rounded=0;orthogonalLoop=1;jettySize=auto;html=1;entryX=0;entryY=0.75;entryDx=0;entryDy=0;" parent="1" source="3xFPrsHCBQQurFq4HEx6-10" target="3xFPrsHCBQQurFq4HEx6-11" edge="1">
          <mxGeometry relative="1" as="geometry">
            <Array as="points">
              <mxPoint x="250" y="293" />
              <mxPoint x="200" y="293" />
              <mxPoint x="200" y="390" />
              <mxPoint x="50" y="390" />
              <mxPoint x="50" y="478" />
            </Array>
          </mxGeometry>
        </mxCell>
        <mxCell id="XV7OEFSdWaxLg8WsvDwZ-1" value="ceļojumu nosaukums" style="rounded=0;whiteSpace=wrap;html=1;" parent="1" vertex="1">
          <mxGeometry x="50" y="290" width="100" height="50" as="geometry" />
        </mxCell>
        <mxCell id="XV7OEFSdWaxLg8WsvDwZ-2" value="lietotajvards" style="rounded=0;whiteSpace=wrap;html=1;" parent="1" vertex="1">
          <mxGeometry x="770" y="20" width="80" height="40" as="geometry" />
        </mxCell>
        <mxCell id="3xFPrsHCBQQurFq4HEx6-7" value="komentari" style="rounded=0;whiteSpace=wrap;html=1;" parent="1" vertex="1">
          <mxGeometry x="740" y="330" width="100" height="50" as="geometry" />
        </mxCell>
        <mxCell id="3xFPrsHCBQQurFq4HEx6-8" value="datums" style="rounded=0;whiteSpace=wrap;html=1;" parent="1" vertex="1">
          <mxGeometry x="460" y="300" width="100" height="50" as="geometry" />
        </mxCell>
        <mxCell id="3xFPrsHCBQQurFq4HEx6-20" style="edgeStyle=orthogonalEdgeStyle;rounded=0;orthogonalLoop=1;jettySize=auto;html=1;entryX=0.5;entryY=1;entryDx=0;entryDy=0;" parent="1" source="3xFPrsHCBQQurFq4HEx6-9" edge="1" target="3xFPrsHCBQQurFq4HEx6-8">
          <mxGeometry relative="1" as="geometry">
            <mxPoint x="320" y="100" as="targetPoint" />
          </mxGeometry>
        </mxCell>
        <mxCell id="3xFPrsHCBQQurFq4HEx6-9" value="ceļojumu maršruts" style="rounded=0;whiteSpace=wrap;html=1;" parent="1" vertex="1">
          <mxGeometry x="260" y="320" width="100" height="50" as="geometry" />
        </mxCell>
        <mxCell id="3xFPrsHCBQQurFq4HEx6-21" style="edgeStyle=orthogonalEdgeStyle;rounded=0;orthogonalLoop=1;jettySize=auto;html=1;exitX=0.5;exitY=1;exitDx=0;exitDy=0;entryX=0.5;entryY=0;entryDx=0;entryDy=0;" parent="1" source="3xFPrsHCBQQurFq4HEx6-10" target="XV7OEFSdWaxLg8WsvDwZ-1" edge="1">
          <mxGeometry relative="1" as="geometry">
            <Array as="points">
              <mxPoint x="113" y="180" />
              <mxPoint x="150" y="180" />
            </Array>
          </mxGeometry>
        </mxCell>
        <mxCell id="3xFPrsHCBQQurFq4HEx6-22" style="edgeStyle=orthogonalEdgeStyle;rounded=0;orthogonalLoop=1;jettySize=auto;html=1;exitX=0.75;exitY=1;exitDx=0;exitDy=0;endArrow=ERmany;endFill=0;" parent="1" source="3xFPrsHCBQQurFq4HEx6-10" target="3xFPrsHCBQQurFq4HEx6-7" edge="1">
          <mxGeometry relative="1" as="geometry">
            <mxPoint x="624" y="238" as="targetPoint" />
            <Array as="points">
              <mxPoint x="266" y="170" />
              <mxPoint x="634" y="170" />
              <mxPoint x="634" y="355" />
            </Array>
          </mxGeometry>
        </mxCell>
        <mxCell id="Vhba2wUY0aN8kHmRcZEK-4" value="1:N" style="edgeLabel;html=1;align=center;verticalAlign=middle;resizable=0;points=[];" vertex="1" connectable="0" parent="3xFPrsHCBQQurFq4HEx6-22">
          <mxGeometry x="0.4618" y="1" relative="1" as="geometry">
            <mxPoint as="offset" />
          </mxGeometry>
        </mxCell>
        <mxCell id="3xFPrsHCBQQurFq4HEx6-25" style="edgeStyle=orthogonalEdgeStyle;rounded=0;orthogonalLoop=1;jettySize=auto;html=1;exitX=0.25;exitY=1;exitDx=0;exitDy=0;" parent="1" source="3xFPrsHCBQQurFq4HEx6-10" target="3xFPrsHCBQQurFq4HEx6-16" edge="1">
          <mxGeometry relative="1" as="geometry" />
        </mxCell>
        <mxCell id="Vhba2wUY0aN8kHmRcZEK-5" style="edgeStyle=orthogonalEdgeStyle;rounded=0;orthogonalLoop=1;jettySize=auto;html=1;startArrow=ERmany;startFill=0;" edge="1" parent="1" source="3xFPrsHCBQQurFq4HEx6-10" target="Vhba2wUY0aN8kHmRcZEK-6">
          <mxGeometry relative="1" as="geometry">
            <mxPoint x="450" y="70" as="targetPoint" />
          </mxGeometry>
        </mxCell>
        <mxCell id="Vhba2wUY0aN8kHmRcZEK-8" value="Autors" style="edgeLabel;html=1;align=center;verticalAlign=middle;resizable=0;points=[];" vertex="1" connectable="0" parent="Vhba2wUY0aN8kHmRcZEK-5">
          <mxGeometry x="0.0003" y="-2" relative="1" as="geometry">
            <mxPoint as="offset" />
          </mxGeometry>
        </mxCell>
        <mxCell id="3xFPrsHCBQQurFq4HEx6-10" value="Celojums" style="rounded=0;whiteSpace=wrap;html=1;" parent="1" vertex="1">
          <mxGeometry x="187.5" y="95" width="105" height="50" as="geometry" />
        </mxCell>
        <mxCell id="3xFPrsHCBQQurFq4HEx6-27" style="edgeStyle=orthogonalEdgeStyle;rounded=0;orthogonalLoop=1;jettySize=auto;html=1;entryX=0;entryY=0.5;entryDx=0;entryDy=0;" parent="1" source="3xFPrsHCBQQurFq4HEx6-11" target="3xFPrsHCBQQurFq4HEx6-14" edge="1">
          <mxGeometry relative="1" as="geometry" />
        </mxCell>
        <mxCell id="3xFPrsHCBQQurFq4HEx6-11" value="ceļojumu apraksts" style="rounded=0;whiteSpace=wrap;html=1;" parent="1" vertex="1">
          <mxGeometry x="100" y="440" width="105" height="50" as="geometry" />
        </mxCell>
        <mxCell id="3xFPrsHCBQQurFq4HEx6-13" value="laiks" style="rounded=0;whiteSpace=wrap;html=1;" parent="1" vertex="1">
          <mxGeometry x="500" y="450" width="100" height="50" as="geometry" />
        </mxCell>
        <mxCell id="3xFPrsHCBQQurFq4HEx6-28" style="edgeStyle=orthogonalEdgeStyle;rounded=0;orthogonalLoop=1;jettySize=auto;html=1;entryX=0.5;entryY=1;entryDx=0;entryDy=0;" parent="1" source="3xFPrsHCBQQurFq4HEx6-14" edge="1" target="3xFPrsHCBQQurFq4HEx6-13">
          <mxGeometry relative="1" as="geometry">
            <mxPoint x="430" y="100" as="targetPoint" />
          </mxGeometry>
        </mxCell>
        <mxCell id="3xFPrsHCBQQurFq4HEx6-14" value="teksts &#39;ko zināt uz priekšdienām&#39;" style="rounded=0;whiteSpace=wrap;html=1;" parent="1" vertex="1">
          <mxGeometry x="260" y="440" width="110" height="50" as="geometry" />
        </mxCell>
        <mxCell id="3xFPrsHCBQQurFq4HEx6-16" value="like count" style="rounded=0;whiteSpace=wrap;html=1;" parent="1" vertex="1">
          <mxGeometry x="10" y="90" width="100" height="50" as="geometry" />
        </mxCell>
        <mxCell id="Vhba2wUY0aN8kHmRcZEK-2" style="edgeStyle=orthogonalEdgeStyle;rounded=0;orthogonalLoop=1;jettySize=auto;html=1;exitX=0.69;exitY=0.98;exitDx=0;exitDy=0;exitPerimeter=0;" edge="1" parent="1" source="3xFPrsHCBQQurFq4HEx6-10" target="3xFPrsHCBQQurFq4HEx6-9">
          <mxGeometry relative="1" as="geometry">
            <Array as="points">
              <mxPoint x="260" y="305" />
              <mxPoint x="310" y="305" />
            </Array>
          </mxGeometry>
        </mxCell>
        <mxCell id="Vhba2wUY0aN8kHmRcZEK-7" style="edgeStyle=orthogonalEdgeStyle;rounded=0;orthogonalLoop=1;jettySize=auto;html=1;" edge="1" parent="1" source="Vhba2wUY0aN8kHmRcZEK-6" target="XV7OEFSdWaxLg8WsvDwZ-2">
          <mxGeometry relative="1" as="geometry" />
        </mxCell>
        <mxCell id="Vhba2wUY0aN8kHmRcZEK-6" value="Lietotājs" style="ellipse;whiteSpace=wrap;html=1;" vertex="1" parent="1">
          <mxGeometry x="590" y="40" width="120" height="80" as="geometry" />
        </mxCell>
      </root>
    </mxGraphModel>
  </diagram>
</mxfile>
